%TF.GenerationSoftware,KiCad,Pcbnew,7.0.8*%
%TF.CreationDate,2023-11-08T08:48:13-05:00*%
%TF.ProjectId,Sleepduino,536c6565-7064-4756-996e-6f2e6b696361,rev?*%
%TF.SameCoordinates,Original*%
%TF.FileFunction,Copper,L1,Top*%
%TF.FilePolarity,Positive*%
%FSLAX46Y46*%
G04 Gerber Fmt 4.6, Leading zero omitted, Abs format (unit mm)*
G04 Created by KiCad (PCBNEW 7.0.8) date 2023-11-08 08:48:13*
%MOMM*%
%LPD*%
G01*
G04 APERTURE LIST*
G04 Aperture macros list*
%AMRoundRect*
0 Rectangle with rounded corners*
0 $1 Rounding radius*
0 $2 $3 $4 $5 $6 $7 $8 $9 X,Y pos of 4 corners*
0 Add a 4 corners polygon primitive as box body*
4,1,4,$2,$3,$4,$5,$6,$7,$8,$9,$2,$3,0*
0 Add four circle primitives for the rounded corners*
1,1,$1+$1,$2,$3*
1,1,$1+$1,$4,$5*
1,1,$1+$1,$6,$7*
1,1,$1+$1,$8,$9*
0 Add four rect primitives between the rounded corners*
20,1,$1+$1,$2,$3,$4,$5,0*
20,1,$1+$1,$4,$5,$6,$7,0*
20,1,$1+$1,$6,$7,$8,$9,0*
20,1,$1+$1,$8,$9,$2,$3,0*%
G04 Aperture macros list end*
%TA.AperFunction,ComponentPad*%
%ADD10R,1.700000X1.700000*%
%TD*%
%TA.AperFunction,ComponentPad*%
%ADD11O,1.700000X1.700000*%
%TD*%
%TA.AperFunction,SMDPad,CuDef*%
%ADD12RoundRect,0.135000X0.135000X0.185000X-0.135000X0.185000X-0.135000X-0.185000X0.135000X-0.185000X0*%
%TD*%
%TA.AperFunction,SMDPad,CuDef*%
%ADD13RoundRect,0.140000X-0.140000X-0.170000X0.140000X-0.170000X0.140000X0.170000X-0.140000X0.170000X0*%
%TD*%
%TA.AperFunction,SMDPad,CuDef*%
%ADD14RoundRect,0.140000X0.170000X-0.140000X0.170000X0.140000X-0.170000X0.140000X-0.170000X-0.140000X0*%
%TD*%
%TA.AperFunction,SMDPad,CuDef*%
%ADD15RoundRect,0.135000X-0.135000X-0.185000X0.135000X-0.185000X0.135000X0.185000X-0.135000X0.185000X0*%
%TD*%
%TA.AperFunction,SMDPad,CuDef*%
%ADD16RoundRect,0.135000X-0.185000X0.135000X-0.185000X-0.135000X0.185000X-0.135000X0.185000X0.135000X0*%
%TD*%
%TA.AperFunction,SMDPad,CuDef*%
%ADD17RoundRect,0.218750X0.256250X-0.218750X0.256250X0.218750X-0.256250X0.218750X-0.256250X-0.218750X0*%
%TD*%
%TA.AperFunction,SMDPad,CuDef*%
%ADD18R,2.000000X1.500000*%
%TD*%
%TA.AperFunction,SMDPad,CuDef*%
%ADD19R,2.000000X3.800000*%
%TD*%
%TA.AperFunction,SMDPad,CuDef*%
%ADD20RoundRect,0.140000X0.140000X0.170000X-0.140000X0.170000X-0.140000X-0.170000X0.140000X-0.170000X0*%
%TD*%
%TA.AperFunction,SMDPad,CuDef*%
%ADD21R,0.533400X1.168400*%
%TD*%
%TA.AperFunction,SMDPad,CuDef*%
%ADD22RoundRect,0.150000X0.587500X0.150000X-0.587500X0.150000X-0.587500X-0.150000X0.587500X-0.150000X0*%
%TD*%
%TA.AperFunction,SMDPad,CuDef*%
%ADD23RoundRect,0.140000X-0.170000X0.140000X-0.170000X-0.140000X0.170000X-0.140000X0.170000X0.140000X0*%
%TD*%
%TA.AperFunction,SMDPad,CuDef*%
%ADD24R,0.550000X1.500000*%
%TD*%
%TA.AperFunction,SMDPad,CuDef*%
%ADD25R,1.500000X0.550000*%
%TD*%
%TA.AperFunction,SMDPad,CuDef*%
%ADD26RoundRect,0.135000X0.185000X-0.135000X0.185000X0.135000X-0.185000X0.135000X-0.185000X-0.135000X0*%
%TD*%
%TA.AperFunction,SMDPad,CuDef*%
%ADD27R,1.350000X0.400000*%
%TD*%
%TA.AperFunction,ComponentPad*%
%ADD28O,1.900000X1.200000*%
%TD*%
%TA.AperFunction,SMDPad,CuDef*%
%ADD29R,1.900000X1.200000*%
%TD*%
%TA.AperFunction,ComponentPad*%
%ADD30C,1.450000*%
%TD*%
%TA.AperFunction,SMDPad,CuDef*%
%ADD31R,1.900000X1.500000*%
%TD*%
%TA.AperFunction,SMDPad,CuDef*%
%ADD32RoundRect,0.150000X-0.150000X0.512500X-0.150000X-0.512500X0.150000X-0.512500X0.150000X0.512500X0*%
%TD*%
%TA.AperFunction,ComponentPad*%
%ADD33C,1.500000*%
%TD*%
%TA.AperFunction,SMDPad,CuDef*%
%ADD34RoundRect,0.250000X-0.312500X-1.450000X0.312500X-1.450000X0.312500X1.450000X-0.312500X1.450000X0*%
%TD*%
%TA.AperFunction,ViaPad*%
%ADD35C,0.800000*%
%TD*%
%TA.AperFunction,Conductor*%
%ADD36C,0.250000*%
%TD*%
G04 APERTURE END LIST*
D10*
%TO.P,J3,1,Pin_1*%
%TO.N,~IO13*%
X153797000Y-99060000D03*
D11*
%TO.P,J3,2,Pin_2*%
%TO.N,+3.3V*%
X153797000Y-101600000D03*
%TO.P,J3,3,Pin_3*%
%TO.N,AREF*%
X153797000Y-104140000D03*
%TO.P,J3,4,Pin_4*%
%TO.N,+5V*%
X153797000Y-106680000D03*
%TO.P,J3,5,Pin_5*%
%TO.N,RST*%
X153797000Y-109220000D03*
%TO.P,J3,6,Pin_6*%
%TO.N,GND*%
X153797000Y-111760000D03*
%TO.P,J3,7,Pin_7*%
%TO.N,Vin*%
X153797000Y-114300000D03*
%TO.P,J3,8,Pin_8*%
%TO.N,MISO*%
X153797000Y-116840000D03*
%TO.P,J3,9,Pin_9*%
%TO.N,SCK*%
X153797000Y-119380000D03*
%TD*%
D10*
%TO.P,J5,1,Pin_1*%
%TO.N,A0*%
X153797000Y-80772000D03*
D11*
%TO.P,J5,2,Pin_2*%
%TO.N,A1*%
X153797000Y-83312000D03*
%TO.P,J5,3,Pin_3*%
%TO.N,A2*%
X153797000Y-85852000D03*
%TO.P,J5,4,Pin_4*%
%TO.N,A3*%
X153797000Y-88392000D03*
%TO.P,J5,5,Pin_5*%
%TO.N,A4*%
X153797000Y-90932000D03*
%TO.P,J5,6,Pin_6*%
%TO.N,A5*%
X153797000Y-93472000D03*
%TD*%
D10*
%TO.P,J4,1,Pin_1*%
%TO.N,~IO12*%
X163576000Y-79756000D03*
D11*
%TO.P,J4,2,Pin_2*%
%TO.N,~IO11*%
X163576000Y-82296000D03*
%TO.P,J4,3,Pin_3*%
%TO.N,~IO10*%
X163576000Y-84836000D03*
%TO.P,J4,4,Pin_4*%
%TO.N,~IO9*%
X163576000Y-87376000D03*
%TO.P,J4,5,Pin_5*%
%TO.N,IO8*%
X163576000Y-89916000D03*
%TO.P,J4,6,Pin_6*%
%TO.N,~D7*%
X163576000Y-92456000D03*
%TO.P,J4,7,Pin_7*%
%TO.N,~D6*%
X163576000Y-94996000D03*
%TO.P,J4,8,Pin_8*%
%TO.N,~D5*%
X163576000Y-97536000D03*
%TO.P,J4,9,Pin_9*%
%TO.N,~D4*%
X163576000Y-100076000D03*
%TO.P,J4,10,Pin_10*%
%TO.N,D3{slash}SCL*%
X163576000Y-102616000D03*
%TO.P,J4,11,Pin_11*%
%TO.N,D2{slash}SDA*%
X163576000Y-105156000D03*
%TO.P,J4,12,Pin_12*%
%TO.N,GND*%
X163576000Y-107696000D03*
%TO.P,J4,13,Pin_13*%
%TO.N,RST*%
X163576000Y-110236000D03*
%TO.P,J4,14,Pin_14*%
%TO.N,D0{slash}RX*%
X163576000Y-112776000D03*
%TO.P,J4,15,Pin_15*%
%TO.N,D1{slash}TX*%
X163576000Y-115316000D03*
%TO.P,J4,16,Pin_16*%
%TO.N,RX_LED*%
X163576000Y-117856000D03*
%TO.P,J4,17,Pin_17*%
%TO.N,MOSI*%
X163576000Y-120396000D03*
%TD*%
D12*
%TO.P,R11,1*%
%TO.N,Net-(U1-~{HWB}{slash}PE2)*%
X184404000Y-44831000D03*
%TO.P,R11,2*%
%TO.N,GND*%
X183384000Y-44831000D03*
%TD*%
%TO.P,R10,2*%
%TO.N,RST*%
X197231000Y-55372000D03*
%TO.P,R10,1*%
%TO.N,+5V*%
X198251000Y-55372000D03*
%TD*%
D13*
%TO.P,C12,1*%
%TO.N,+5V*%
X191643000Y-44704000D03*
%TO.P,C12,2*%
%TO.N,GND*%
X192603000Y-44704000D03*
%TD*%
D14*
%TO.P,C11,2*%
%TO.N,GND*%
X195961000Y-53650000D03*
%TO.P,C11,1*%
%TO.N,+5V*%
X195961000Y-54610000D03*
%TD*%
%TO.P,C10,1*%
%TO.N,GND*%
X180975000Y-55344000D03*
%TO.P,C10,2*%
%TO.N,AREF*%
X180975000Y-54384000D03*
%TD*%
D13*
%TO.P,C9,1*%
%TO.N,GND*%
X187480000Y-59436000D03*
%TO.P,C9,2*%
%TO.N,Net-(U1-UCAP)*%
X188440000Y-59436000D03*
%TD*%
D15*
%TO.P,R6,2*%
%TO.N,D-*%
X174494000Y-63923000D03*
%TO.P,R6,1*%
%TO.N,Net-(J2-D-)*%
X173474000Y-63923000D03*
%TD*%
D16*
%TO.P,R9,1*%
%TO.N,+5V*%
X175394800Y-135931400D03*
%TO.P,R9,2*%
%TO.N,Net-(ON1-A)*%
X175394800Y-136951400D03*
%TD*%
%TO.P,R1,1*%
%TO.N,Vin*%
X181253000Y-103692000D03*
%TO.P,R1,2*%
%TO.N,GND*%
X181253000Y-104712000D03*
%TD*%
D17*
%TO.P,LED_BUILTIN1,1,K*%
%TO.N,GND*%
X178323700Y-140046400D03*
%TO.P,LED_BUILTIN1,2,A*%
%TO.N,Net-(LED_BUILTIN1-A)*%
X178323700Y-138471400D03*
%TD*%
D16*
%TO.P,R7,1*%
%TO.N,Net-(U1-PD5)*%
X184150000Y-136144000D03*
%TO.P,R7,2*%
%TO.N,Net-(TX1-A)*%
X184150000Y-137164000D03*
%TD*%
%TO.P,R8,2*%
%TO.N,Net-(LED_BUILTIN1-A)*%
X178323700Y-136951400D03*
%TO.P,R8,1*%
%TO.N,~IO13*%
X178323700Y-135931400D03*
%TD*%
D14*
%TO.P,C1,1*%
%TO.N,Net-(U2-S)*%
X192253000Y-96337000D03*
%TO.P,C1,2*%
%TO.N,GND*%
X192253000Y-95377000D03*
%TD*%
D18*
%TO.P,U3,1,GND*%
%TO.N,GND*%
X191618000Y-102757000D03*
%TO.P,U3,2,VO*%
%TO.N,+5V*%
X191618000Y-100457000D03*
D19*
X185318000Y-100457000D03*
D18*
%TO.P,U3,3,VI*%
%TO.N,Net-(U2-S)*%
X191618000Y-98157000D03*
%TD*%
D14*
%TO.P,C3,1*%
%TO.N,GND*%
X203581000Y-55852000D03*
%TO.P,C3,2*%
%TO.N,XTAL2*%
X203581000Y-54892000D03*
%TD*%
D20*
%TO.P,C7,1*%
%TO.N,Vusb*%
X176903000Y-97689500D03*
%TO.P,C7,2*%
%TO.N,GND*%
X175943000Y-97689500D03*
%TD*%
D14*
%TO.P,C8,2*%
%TO.N,GND*%
X182633000Y-93222000D03*
%TO.P,C8,1*%
%TO.N,Net-(J2-VBUS)*%
X182633000Y-94182000D03*
%TD*%
D21*
%TO.P,U2,1,G*%
%TO.N,+5V*%
X188302999Y-95248000D03*
%TO.P,U2,2,S*%
%TO.N,Net-(U2-S)*%
X190203001Y-95248000D03*
%TO.P,U2,3,D*%
%TO.N,Vin*%
X189253000Y-93216000D03*
%TD*%
D17*
%TO.P,TX1,1,K*%
%TO.N,GND*%
X184150000Y-140208000D03*
%TO.P,TX1,2,A*%
%TO.N,Net-(TX1-A)*%
X184150000Y-138633000D03*
%TD*%
D22*
%TO.P,Q1,1,G*%
%TO.N,Vin*%
X181220500Y-102022000D03*
%TO.P,Q1,2,S*%
%TO.N,+5V*%
X181220500Y-100122000D03*
%TO.P,Q1,3,D*%
%TO.N,Vusb*%
X179345500Y-101072000D03*
%TD*%
D23*
%TO.P,C4,1*%
%TO.N,GND*%
X203454000Y-50503000D03*
%TO.P,C4,2*%
%TO.N,XTAL1*%
X203454000Y-51463000D03*
%TD*%
D17*
%TO.P,ON1,1,K*%
%TO.N,GND*%
X175394800Y-140046400D03*
%TO.P,ON1,2,A*%
%TO.N,Net-(ON1-A)*%
X175394800Y-138471400D03*
%TD*%
D16*
%TO.P,R5,1*%
%TO.N,RX_LED*%
X181329300Y-136093000D03*
%TO.P,R5,2*%
%TO.N,Net-(RX1-A)*%
X181329300Y-137113000D03*
%TD*%
D10*
%TO.P,J1,1,Pin_1*%
%TO.N,MISO*%
X201803000Y-43815000D03*
D11*
%TO.P,J1,2,Pin_2*%
%TO.N,+5V*%
X201803000Y-41275000D03*
%TO.P,J1,3,Pin_3*%
%TO.N,SCK*%
X204343000Y-43815000D03*
%TO.P,J1,4,Pin_4*%
%TO.N,MOSI*%
X204343000Y-41275000D03*
%TO.P,J1,5,Pin_5*%
%TO.N,RESET*%
X206883000Y-43815000D03*
%TO.P,J1,6,Pin_6*%
%TO.N,GND*%
X206883000Y-41275000D03*
%TD*%
D12*
%TO.P,R3,1*%
%TO.N,Vusb*%
X176903000Y-99009500D03*
%TO.P,R3,2*%
%TO.N,GND*%
X175883000Y-99009500D03*
%TD*%
D15*
%TO.P,R4,2*%
%TO.N,D+*%
X174498000Y-64939000D03*
%TO.P,R4,1*%
%TO.N,Net-(J2-D+)*%
X173478000Y-64939000D03*
%TD*%
D24*
%TO.P,U1,1,PE6*%
%TO.N,~D7*%
X184443000Y-57785000D03*
%TO.P,U1,2,UVCC*%
%TO.N,+5V*%
X185243000Y-57785000D03*
%TO.P,U1,3,D-*%
%TO.N,D-*%
X186043000Y-57785000D03*
%TO.P,U1,4,D+*%
%TO.N,D+*%
X186843000Y-57785000D03*
%TO.P,U1,5,UGND*%
%TO.N,GND*%
X187643000Y-57785000D03*
%TO.P,U1,6,UCAP*%
%TO.N,Net-(U1-UCAP)*%
X188443000Y-57785000D03*
%TO.P,U1,7,VBUS*%
%TO.N,Vusb*%
X189243000Y-57785000D03*
%TO.P,U1,8,PB0*%
%TO.N,RX_LED*%
X190043000Y-57785000D03*
%TO.P,U1,9,PB1*%
%TO.N,SCK*%
X190843000Y-57785000D03*
%TO.P,U1,10,PB2*%
%TO.N,MOSI*%
X191643000Y-57785000D03*
%TO.P,U1,11,PB3*%
%TO.N,MISO*%
X192443000Y-57785000D03*
D25*
%TO.P,U1,12,PB7*%
%TO.N,~IO11*%
X194143000Y-56085000D03*
%TO.P,U1,13,~{RESET}*%
%TO.N,RST*%
X194143000Y-55285000D03*
%TO.P,U1,14,VCC*%
%TO.N,+5V*%
X194143000Y-54485000D03*
%TO.P,U1,15,GND*%
%TO.N,GND*%
X194143000Y-53685000D03*
%TO.P,U1,16,XTAL2*%
%TO.N,XTAL2*%
X194143000Y-52885000D03*
%TO.P,U1,17,XTAL1*%
%TO.N,XTAL1*%
X194143000Y-52085000D03*
%TO.P,U1,18,PD0*%
%TO.N,D3{slash}SCL*%
X194143000Y-51285000D03*
%TO.P,U1,19,PD1*%
%TO.N,D2{slash}SDA*%
X194143000Y-50485000D03*
%TO.P,U1,20,PD2*%
%TO.N,D0{slash}RX*%
X194143000Y-49685000D03*
%TO.P,U1,21,PD3*%
%TO.N,D1{slash}TX*%
X194143000Y-48885000D03*
%TO.P,U1,22,PD5*%
%TO.N,Net-(U1-PD5)*%
X194143000Y-48085000D03*
D24*
%TO.P,U1,23,GND*%
%TO.N,GND*%
X192443000Y-46385000D03*
%TO.P,U1,24,AVCC*%
%TO.N,+5V*%
X191643000Y-46385000D03*
%TO.P,U1,25,PD4*%
%TO.N,~D4*%
X190843000Y-46385000D03*
%TO.P,U1,26,PD6*%
%TO.N,~IO12*%
X190043000Y-46385000D03*
%TO.P,U1,27,PD7*%
%TO.N,~D6*%
X189243000Y-46385000D03*
%TO.P,U1,28,PB4*%
%TO.N,IO8*%
X188443000Y-46385000D03*
%TO.P,U1,29,PB5*%
%TO.N,~IO9*%
X187643000Y-46385000D03*
%TO.P,U1,30,PB6*%
%TO.N,~IO10*%
X186843000Y-46385000D03*
%TO.P,U1,31,PC6*%
%TO.N,~D5*%
X186043000Y-46385000D03*
%TO.P,U1,32,PC7*%
%TO.N,~IO13*%
X185243000Y-46385000D03*
%TO.P,U1,33,~{HWB}/PE2*%
%TO.N,Net-(U1-~{HWB}{slash}PE2)*%
X184443000Y-46385000D03*
D25*
%TO.P,U1,34,VCC*%
%TO.N,+5V*%
X182743000Y-48085000D03*
%TO.P,U1,35,GND*%
%TO.N,GND*%
X182743000Y-48885000D03*
%TO.P,U1,36,PF7*%
%TO.N,A0*%
X182743000Y-49685000D03*
%TO.P,U1,37,PF6*%
%TO.N,A1*%
X182743000Y-50485000D03*
%TO.P,U1,38,PF5*%
%TO.N,A2*%
X182743000Y-51285000D03*
%TO.P,U1,39,PF4*%
%TO.N,A3*%
X182743000Y-52085000D03*
%TO.P,U1,40,PF1*%
%TO.N,A4*%
X182743000Y-52885000D03*
%TO.P,U1,41,PF0*%
%TO.N,A5*%
X182743000Y-53685000D03*
%TO.P,U1,42,AREF*%
%TO.N,AREF*%
X182743000Y-54485000D03*
%TO.P,U1,43,GND*%
%TO.N,GND*%
X182743000Y-55285000D03*
%TO.P,U1,44,AVCC*%
%TO.N,+5V*%
X182743000Y-56085000D03*
%TD*%
D26*
%TO.P,R2,1*%
%TO.N,XTAL2*%
X203200000Y-53686000D03*
%TO.P,R2,2*%
%TO.N,XTAL1*%
X203200000Y-52666000D03*
%TD*%
D27*
%TO.P,J2,1,VBUS*%
%TO.N,Net-(J2-VBUS)*%
X171229000Y-63491000D03*
%TO.P,J2,2,D-*%
%TO.N,Net-(J2-D-)*%
X171229000Y-64141000D03*
%TO.P,J2,3,D+*%
%TO.N,Net-(J2-D+)*%
X171229000Y-64791000D03*
%TO.P,J2,4,ID*%
%TO.N,unconnected-(J2-ID-Pad4)*%
X171229000Y-65441000D03*
%TO.P,J2,5,GND*%
%TO.N,GND*%
X171229000Y-66091000D03*
D28*
%TO.P,J2,6,Shield*%
X168529000Y-61291000D03*
D29*
X168529000Y-61891000D03*
D30*
X171229000Y-62291000D03*
D31*
X168529000Y-63791000D03*
X168529000Y-65791000D03*
D30*
X171229000Y-67291000D03*
D29*
X168529000Y-67691000D03*
D28*
X168529000Y-68291000D03*
%TD*%
D23*
%TO.P,C6,2*%
%TO.N,GND*%
X189763000Y-108362000D03*
%TO.P,C6,1*%
%TO.N,+3.3V*%
X189763000Y-107402000D03*
%TD*%
%TO.P,C5,1*%
%TO.N,+5V*%
X195428000Y-100037000D03*
%TO.P,C5,2*%
%TO.N,GND*%
X195428000Y-100997000D03*
%TD*%
D32*
%TO.P,U4,1,VIN*%
%TO.N,+5V*%
X188223000Y-105464500D03*
%TO.P,U4,2,GND*%
%TO.N,GND*%
X187273000Y-105464500D03*
%TO.P,U4,3,ON/~{OFF}*%
%TO.N,+5V*%
X186323000Y-105464500D03*
%TO.P,U4,4,BP*%
%TO.N,unconnected-(U4-BP-Pad4)*%
X186323000Y-107739500D03*
%TO.P,U4,5,VOUT*%
%TO.N,+3.3V*%
X188223000Y-107739500D03*
%TD*%
D17*
%TO.P,RX1,1,K*%
%TO.N,GND*%
X181329300Y-140208000D03*
%TO.P,RX1,2,A*%
%TO.N,Net-(RX1-A)*%
X181329300Y-138633000D03*
%TD*%
D33*
%TO.P,Y2,1,1*%
%TO.N,GND*%
X207137000Y-55118000D03*
%TO.P,Y2,2,2*%
X207137000Y-50238000D03*
%TD*%
D23*
%TO.P,C2,1*%
%TO.N,+5V*%
X194318000Y-100037000D03*
%TO.P,C2,2*%
%TO.N,GND*%
X194318000Y-100997000D03*
%TD*%
D34*
%TO.P,F1,1*%
%TO.N,Vusb*%
X178315500Y-96842000D03*
%TO.P,F1,2*%
%TO.N,Net-(J2-VBUS)*%
X182590500Y-96842000D03*
%TD*%
D35*
%TO.N,D-*%
X185998900Y-59402400D03*
X176006400Y-65360700D03*
%TO.N,D+*%
X186751500Y-60467900D03*
X175297400Y-66069700D03*
%TO.N,RX_LED*%
X190043000Y-70868900D03*
%TO.N,RST*%
X196507800Y-56011900D03*
%TO.N,Net-(J2-VBUS)*%
X182181900Y-77039300D03*
X176424400Y-64308400D03*
%TO.N,+3.3V*%
X182300200Y-103669300D03*
%TO.N,~D5*%
X186043000Y-49654300D03*
%TO.N,~IO10*%
X186655500Y-53526000D03*
%TO.N,~IO9*%
X187643000Y-50311800D03*
%TO.N,~D6*%
X188442900Y-54328800D03*
%TO.N,~IO12*%
X190003900Y-51162800D03*
%TO.N,~D4*%
X189213800Y-53559200D03*
%TO.N,D1{slash}TX*%
X192327000Y-56424400D03*
X185914200Y-64956900D03*
%TO.N,D0{slash}RX*%
X199049000Y-51403500D03*
%TO.N,D2{slash}SDA*%
X195550300Y-50485000D03*
X171731000Y-92908500D03*
%TO.N,D3{slash}SCL*%
X193321700Y-57258400D03*
%TO.N,~IO11*%
X195495800Y-56041000D03*
%TO.N,Net-(U1-PD5)*%
X191870500Y-55458100D03*
X186124500Y-72476900D03*
%TO.N,Vin*%
X181058300Y-105595400D03*
%TO.N,MOSI*%
X172353400Y-100465200D03*
%TO.N,SCK*%
X195846300Y-60343200D03*
%TO.N,+5V*%
X184105500Y-47752000D03*
X181220500Y-101048500D03*
X180257100Y-85257500D03*
X183820900Y-102861700D03*
X196873500Y-54385000D03*
%TO.N,GND*%
X181702800Y-46601800D03*
%TD*%
D36*
%TO.N,D-*%
X186043000Y-57785000D02*
X186043000Y-58861900D01*
X185998900Y-58906000D02*
X185998900Y-59402400D01*
X186043000Y-58861900D02*
X185998900Y-58906000D01*
X175931700Y-65360700D02*
X176006400Y-65360700D01*
X174494000Y-63923000D02*
X175931700Y-65360700D01*
%TO.N,D+*%
X186843000Y-60376400D02*
X186751500Y-60467900D01*
X186843000Y-57785000D02*
X186843000Y-60376400D01*
X174498000Y-65270300D02*
X175297400Y-66069700D01*
X174498000Y-64939000D02*
X174498000Y-65270300D01*
%TO.N,RX_LED*%
X164269200Y-119032900D02*
X181329300Y-136093000D01*
X163576000Y-119032900D02*
X164269200Y-119032900D01*
X163576000Y-117856000D02*
X163576000Y-119032900D01*
X190043000Y-57785000D02*
X190043000Y-70868900D01*
%TO.N,RST*%
X196605600Y-55372000D02*
X197231000Y-55372000D01*
X196518600Y-55285000D02*
X196605600Y-55372000D01*
X194143000Y-55285000D02*
X196518600Y-55285000D01*
X196605600Y-55914100D02*
X196507800Y-56011900D01*
X196605600Y-55372000D02*
X196605600Y-55914100D01*
%TO.N,AREF*%
X181076000Y-54485000D02*
X180975000Y-54384000D01*
X182743000Y-54485000D02*
X181076000Y-54485000D01*
X153797000Y-104140000D02*
X153797000Y-102963100D01*
X154162800Y-102963100D02*
X153797000Y-102963100D01*
X155161600Y-101964300D02*
X154162800Y-102963100D01*
X155161600Y-96572700D02*
X155161600Y-101964300D01*
X163088300Y-88646000D02*
X155161600Y-96572700D01*
X163972400Y-88646000D02*
X163088300Y-88646000D01*
X180337600Y-72280800D02*
X163972400Y-88646000D01*
X180337600Y-55010300D02*
X180337600Y-72280800D01*
X180963900Y-54384000D02*
X180337600Y-55010300D01*
X180975000Y-54384000D02*
X180963900Y-54384000D01*
%TO.N,Net-(J2-D+)*%
X173330000Y-64791000D02*
X173478000Y-64939000D01*
X171229000Y-64791000D02*
X173330000Y-64791000D01*
%TO.N,Net-(J2-D-)*%
X173256000Y-64141000D02*
X173474000Y-63923000D01*
X171229000Y-64141000D02*
X173256000Y-64141000D01*
%TO.N,Net-(J2-VBUS)*%
X182633000Y-94182000D02*
X182611800Y-94203200D01*
X182590500Y-94224500D02*
X182590500Y-96842000D01*
X182611800Y-94203200D02*
X182590500Y-94224500D01*
X181989900Y-77231300D02*
X182181900Y-77039300D01*
X181989900Y-93581300D02*
X181989900Y-77231300D01*
X182611800Y-94203200D02*
X181989900Y-93581300D01*
X175386500Y-63270500D02*
X176424400Y-64308400D01*
X172949000Y-63270500D02*
X175386500Y-63270500D01*
X172728500Y-63491000D02*
X172949000Y-63270500D01*
X171229000Y-63491000D02*
X172728500Y-63491000D01*
%TO.N,+3.3V*%
X189425500Y-107739500D02*
X188223000Y-107739500D01*
X189763000Y-107402000D02*
X189425500Y-107739500D01*
X182384900Y-103754000D02*
X182300200Y-103669300D01*
X182384900Y-105157300D02*
X182384900Y-103754000D01*
X185957100Y-108729500D02*
X182384900Y-105157300D01*
X187233000Y-108729500D02*
X185957100Y-108729500D01*
X188223000Y-107739500D02*
X187233000Y-108729500D01*
%TO.N,Net-(U2-S)*%
X191618000Y-98157000D02*
X191618000Y-97618500D01*
X192253000Y-96983500D02*
X192253000Y-96337000D01*
X191618000Y-97618500D02*
X192253000Y-96983500D01*
X191885600Y-96337000D02*
X192253000Y-96337000D01*
X190796600Y-95248000D02*
X191885600Y-96337000D01*
X190203000Y-95248000D02*
X190796600Y-95248000D01*
%TO.N,Net-(TX1-A)*%
X184150000Y-138633000D02*
X184150000Y-137164000D01*
%TO.N,A5*%
X153797000Y-93472000D02*
X153797000Y-92295100D01*
X180702900Y-53685000D02*
X182743000Y-53685000D01*
X179875900Y-54512000D02*
X180702900Y-53685000D01*
X179875900Y-67661100D02*
X179875900Y-54512000D01*
X163971000Y-83566000D02*
X179875900Y-67661100D01*
X163171500Y-83566000D02*
X163971000Y-83566000D01*
X154442400Y-92295100D02*
X163171500Y-83566000D01*
X153797000Y-92295100D02*
X154442400Y-92295100D01*
%TO.N,A4*%
X153797000Y-90932000D02*
X153797000Y-89755100D01*
X180805400Y-52885000D02*
X182743000Y-52885000D01*
X179413700Y-54276700D02*
X180805400Y-52885000D01*
X179413700Y-66184000D02*
X179413700Y-54276700D01*
X164555200Y-81042500D02*
X179413700Y-66184000D01*
X163151100Y-81042500D02*
X164555200Y-81042500D01*
X154438500Y-89755100D02*
X163151100Y-81042500D01*
X153797000Y-89755100D02*
X154438500Y-89755100D01*
%TO.N,A3*%
X153797000Y-88392000D02*
X153797000Y-87215100D01*
X182743000Y-52085000D02*
X181666100Y-52085000D01*
X180913200Y-52085000D02*
X181666100Y-52085000D01*
X178961800Y-54036400D02*
X180913200Y-52085000D01*
X178961800Y-65996800D02*
X178961800Y-54036400D01*
X166539700Y-78418900D02*
X178961800Y-65996800D01*
X162727400Y-78418900D02*
X166539700Y-78418900D01*
X159728300Y-81418000D02*
X162727400Y-78418900D01*
X159728300Y-81771500D02*
X159728300Y-81418000D01*
X154284700Y-87215100D02*
X159728300Y-81771500D01*
X153797000Y-87215100D02*
X154284700Y-87215100D01*
%TO.N,A2*%
X153797000Y-85852000D02*
X154973900Y-85852000D01*
X182743000Y-51285000D02*
X181666100Y-51285000D01*
X181666100Y-51285100D02*
X181666100Y-51285000D01*
X181004700Y-51285100D02*
X181666100Y-51285100D01*
X178509900Y-53779900D02*
X181004700Y-51285100D01*
X178509900Y-65809600D02*
X178509900Y-53779900D01*
X166804400Y-77515100D02*
X178509900Y-65809600D01*
X162945000Y-77515100D02*
X166804400Y-77515100D01*
X154973900Y-85486200D02*
X162945000Y-77515100D01*
X154973900Y-85852000D02*
X154973900Y-85486200D01*
%TO.N,A1*%
X153797000Y-83312000D02*
X154973900Y-83312000D01*
X181149600Y-50485000D02*
X182743000Y-50485000D01*
X178058000Y-53576600D02*
X181149600Y-50485000D01*
X178058000Y-65622400D02*
X178058000Y-53576600D01*
X171151600Y-72528800D02*
X178058000Y-65622400D01*
X165757100Y-72528800D02*
X171151600Y-72528800D01*
X154973900Y-83312000D02*
X165757100Y-72528800D01*
%TO.N,A0*%
X153797000Y-80772000D02*
X154973900Y-80772000D01*
X182743000Y-49685000D02*
X181666100Y-49685000D01*
X181239100Y-49685000D02*
X181666100Y-49685000D01*
X177604600Y-53319500D02*
X181239100Y-49685000D01*
X177604600Y-65436700D02*
X177604600Y-53319500D01*
X170964400Y-72076900D02*
X177604600Y-65436700D01*
X163669000Y-72076900D02*
X170964400Y-72076900D01*
X154973900Y-80772000D02*
X163669000Y-72076900D01*
%TO.N,~D5*%
X186043000Y-46385000D02*
X186043000Y-49654300D01*
%TO.N,Net-(RX1-A)*%
X181329300Y-138633000D02*
X181329300Y-137113000D01*
%TO.N,~IO10*%
X186843000Y-53338500D02*
X186655500Y-53526000D01*
X186843000Y-46385000D02*
X186843000Y-53338500D01*
%TO.N,~IO9*%
X187643000Y-46385000D02*
X187643000Y-50311800D01*
%TO.N,IO8*%
X188443000Y-46385000D02*
X188443000Y-47461900D01*
X183841100Y-69650900D02*
X163576000Y-89916000D01*
X183841100Y-56859300D02*
X183841100Y-69650900D01*
X184013500Y-56686900D02*
X183841100Y-56859300D01*
X184530700Y-56686900D02*
X184013500Y-56686900D01*
X187530000Y-53687600D02*
X184530700Y-56686900D01*
X187530000Y-52771400D02*
X187530000Y-53687600D01*
X188443000Y-51858400D02*
X187530000Y-52771400D01*
X188443000Y-47461900D02*
X188443000Y-51858400D01*
%TO.N,~D6*%
X189243000Y-46385000D02*
X189243000Y-47461900D01*
X188442900Y-52497600D02*
X188442900Y-54328800D01*
X189243000Y-51697500D02*
X188442900Y-52497600D01*
X189243000Y-47461900D02*
X189243000Y-51697500D01*
%TO.N,~IO12*%
X190043000Y-51123700D02*
X190003900Y-51162800D01*
X190043000Y-46385000D02*
X190043000Y-51123700D01*
%TO.N,Net-(ON1-A)*%
X175394800Y-138471400D02*
X175394800Y-136951400D01*
%TO.N,~D4*%
X190843000Y-46385000D02*
X190843000Y-47461900D01*
X190743700Y-52029300D02*
X189213800Y-53559200D01*
X190743700Y-47561200D02*
X190743700Y-52029300D01*
X190843000Y-47461900D02*
X190743700Y-47561200D01*
%TO.N,D1{slash}TX*%
X163576000Y-115316000D02*
X163576000Y-114139100D01*
X194143000Y-48885000D02*
X193066100Y-48885000D01*
X192605400Y-49345700D02*
X193066100Y-48885000D01*
X192605400Y-56146000D02*
X192605400Y-49345700D01*
X192327000Y-56424400D02*
X192605400Y-56146000D01*
X163210200Y-114139100D02*
X163576000Y-114139100D01*
X162377400Y-113306300D02*
X163210200Y-114139100D01*
X162377400Y-107142400D02*
X162377400Y-113306300D01*
X163093800Y-106426000D02*
X162377400Y-107142400D01*
X163989400Y-106426000D02*
X163093800Y-106426000D01*
X172875000Y-97540400D02*
X163989400Y-106426000D01*
X172875000Y-83401000D02*
X172875000Y-97540400D01*
X184041900Y-72234100D02*
X172875000Y-83401000D01*
X184041900Y-71614300D02*
X184041900Y-72234100D01*
X185914200Y-69742000D02*
X184041900Y-71614300D01*
X185914200Y-64956900D02*
X185914200Y-69742000D01*
%TO.N,D0{slash}RX*%
X194143000Y-49685000D02*
X195219900Y-49685000D01*
X197330500Y-49685000D02*
X199049000Y-51403500D01*
X195219900Y-49685000D02*
X197330500Y-49685000D01*
%TO.N,D2{slash}SDA*%
X163576000Y-105156000D02*
X163576000Y-103979100D01*
X194143000Y-50485000D02*
X195550300Y-50485000D01*
X171731000Y-96191900D02*
X171731000Y-92908500D01*
X163943800Y-103979100D02*
X171731000Y-96191900D01*
X163576000Y-103979100D02*
X163943800Y-103979100D01*
%TO.N,D3{slash}SCL*%
X194143000Y-51285000D02*
X193066100Y-51285000D01*
X193066100Y-57002800D02*
X193321700Y-57258400D01*
X193066100Y-51285000D02*
X193066100Y-57002800D01*
%TO.N,~IO11*%
X195451800Y-56085000D02*
X195495800Y-56041000D01*
X194143000Y-56085000D02*
X195451800Y-56085000D01*
%TO.N,~D7*%
X163576000Y-92456000D02*
X163576000Y-91279100D01*
X184443000Y-57785000D02*
X184443000Y-58861900D01*
X163935400Y-91279100D02*
X163576000Y-91279100D01*
X183590000Y-71624500D02*
X163935400Y-91279100D01*
X183590000Y-71427100D02*
X183590000Y-71624500D01*
X184443000Y-70574100D02*
X183590000Y-71427100D01*
X184443000Y-58861900D02*
X184443000Y-70574100D01*
%TO.N,Net-(LED_BUILTIN1-A)*%
X178323700Y-138471400D02*
X178323700Y-136951400D01*
%TO.N,Net-(U1-~{HWB}{slash}PE2)*%
X184404000Y-45269100D02*
X184404000Y-44831000D01*
X184443000Y-45308100D02*
X184404000Y-45269100D01*
X184443000Y-46385000D02*
X184443000Y-45308100D01*
%TO.N,~IO13*%
X153797000Y-99060000D02*
X153797000Y-100236900D01*
X177433800Y-135931400D02*
X178323700Y-135931400D01*
X159514600Y-118012200D02*
X177433800Y-135931400D01*
X159514600Y-110696900D02*
X159514600Y-118012200D01*
X154227700Y-105410000D02*
X159514600Y-110696900D01*
X153328800Y-105410000D02*
X154227700Y-105410000D01*
X152576400Y-104657600D02*
X153328800Y-105410000D01*
X152576400Y-101089700D02*
X152576400Y-104657600D01*
X153429200Y-100236900D02*
X152576400Y-101089700D01*
X153797000Y-100236900D02*
X153429200Y-100236900D01*
X152620100Y-96706200D02*
X153797000Y-97883100D01*
X152620100Y-79771300D02*
X152620100Y-96706200D01*
X161857000Y-70534400D02*
X152620100Y-79771300D01*
X171861000Y-70534400D02*
X161857000Y-70534400D01*
X177152100Y-65243300D02*
X171861000Y-70534400D01*
X177152100Y-50070200D02*
X177152100Y-65243300D01*
X183108900Y-44113400D02*
X177152100Y-50070200D01*
X184663500Y-44113400D02*
X183108900Y-44113400D01*
X185243000Y-44692900D02*
X184663500Y-44113400D01*
X185243000Y-46385000D02*
X185243000Y-44692900D01*
X153797000Y-99060000D02*
X153797000Y-97883100D01*
%TO.N,Net-(U1-PD5)*%
X196569000Y-123725000D02*
X184150000Y-136144000D01*
X196569000Y-91571300D02*
X196569000Y-123725000D01*
X186124500Y-81126800D02*
X196569000Y-91571300D01*
X186124500Y-72476900D02*
X186124500Y-81126800D01*
X194143000Y-48085000D02*
X193066100Y-48085000D01*
X192153500Y-55175100D02*
X191870500Y-55458100D01*
X192153500Y-48997600D02*
X192153500Y-55175100D01*
X193066100Y-48085000D02*
X192153500Y-48997600D01*
%TO.N,Net-(U1-UCAP)*%
X188443000Y-59433000D02*
X188440000Y-59436000D01*
X188443000Y-57785000D02*
X188443000Y-59433000D01*
%TO.N,Vusb*%
X176903000Y-97689500D02*
X176903000Y-99009500D01*
X177283000Y-99009500D02*
X179345500Y-101072000D01*
X176903000Y-99009500D02*
X177283000Y-99009500D01*
X181436000Y-93721500D02*
X178315500Y-96842000D01*
X181436000Y-76757300D02*
X181436000Y-93721500D01*
X185397600Y-72795700D02*
X181436000Y-76757300D01*
X185397600Y-72175900D02*
X185397600Y-72795700D01*
X189243000Y-68330500D02*
X185397600Y-72175900D01*
X189243000Y-57785000D02*
X189243000Y-68330500D01*
X177468000Y-97689500D02*
X176903000Y-97689500D01*
X178315500Y-96842000D02*
X177468000Y-97689500D01*
%TO.N,Vin*%
X183090700Y-100216800D02*
X181253000Y-102054500D01*
X183090700Y-99120100D02*
X183090700Y-100216800D01*
X188659400Y-93551400D02*
X183090700Y-99120100D01*
X188659400Y-93216000D02*
X188659400Y-93551400D01*
X181220500Y-102022000D02*
X181253000Y-102054500D01*
X189253000Y-93216000D02*
X188659400Y-93216000D01*
X181253000Y-102054500D02*
X181253000Y-103692000D01*
X181415200Y-105595400D02*
X181058300Y-105595400D01*
X181909000Y-105101600D02*
X181415200Y-105595400D01*
X181909000Y-104348000D02*
X181909000Y-105101600D01*
X181253000Y-103692000D02*
X181909000Y-104348000D01*
%TO.N,MOSI*%
X172353400Y-108284300D02*
X172353400Y-100465200D01*
X164051700Y-116586000D02*
X172353400Y-108284300D01*
X163152100Y-116586000D02*
X164051700Y-116586000D01*
X162381600Y-117356500D02*
X163152100Y-116586000D01*
X162381600Y-119201600D02*
X162381600Y-117356500D01*
X163576000Y-120396000D02*
X162381600Y-119201600D01*
X205589200Y-58861900D02*
X191643000Y-58861900D01*
X208681300Y-55769800D02*
X205589200Y-58861900D01*
X208681300Y-40737400D02*
X208681300Y-55769800D01*
X207525300Y-39581400D02*
X208681300Y-40737400D01*
X206036600Y-39581400D02*
X207525300Y-39581400D01*
X204343000Y-41275000D02*
X206036600Y-39581400D01*
X191643000Y-57785000D02*
X191643000Y-58861900D01*
%TO.N,SCK*%
X190843000Y-57785000D02*
X190843000Y-58861900D01*
X192324300Y-60343200D02*
X195846300Y-60343200D01*
X190843000Y-58861900D02*
X192324300Y-60343200D01*
%TO.N,MISO*%
X201803000Y-43815000D02*
X202979900Y-43815000D01*
X192675600Y-58017600D02*
X192443000Y-57785000D01*
X205774600Y-58017600D02*
X192675600Y-58017600D01*
X208214000Y-55578200D02*
X205774600Y-58017600D01*
X208214000Y-40925200D02*
X208214000Y-55578200D01*
X207354400Y-40065600D02*
X208214000Y-40925200D01*
X206425600Y-40065600D02*
X207354400Y-40065600D01*
X205580200Y-40911000D02*
X206425600Y-40065600D01*
X205580200Y-41722300D02*
X205580200Y-40911000D01*
X204664400Y-42638100D02*
X205580200Y-41722300D01*
X203788900Y-42638100D02*
X204664400Y-42638100D01*
X202979900Y-43447100D02*
X203788900Y-42638100D01*
X202979900Y-43815000D02*
X202979900Y-43447100D01*
%TO.N,XTAL1*%
X194143000Y-52085000D02*
X195219900Y-52085000D01*
X202786500Y-52252500D02*
X203200000Y-52666000D01*
X202786500Y-52130500D02*
X202786500Y-52252500D01*
X195265400Y-52130500D02*
X202786500Y-52130500D01*
X195219900Y-52085000D02*
X195265400Y-52130500D01*
X202786500Y-52130500D02*
X203454000Y-51463000D01*
%TO.N,XTAL2*%
X194143000Y-52885000D02*
X195219900Y-52885000D01*
X202399000Y-52885000D02*
X203200000Y-53686000D01*
X195219900Y-52885000D02*
X202399000Y-52885000D01*
X203581000Y-54067000D02*
X203581000Y-54892000D01*
X203200000Y-53686000D02*
X203581000Y-54067000D01*
%TO.N,+5V*%
X188303000Y-95248000D02*
X187709400Y-95248000D01*
X154973900Y-115510500D02*
X175394800Y-135931400D01*
X154973900Y-108665900D02*
X154973900Y-115510500D01*
X154164900Y-107856900D02*
X154973900Y-108665900D01*
X153797000Y-107856900D02*
X154164900Y-107856900D01*
X153797000Y-106680000D02*
X153797000Y-107856900D01*
X185318000Y-100457000D02*
X185318000Y-98230100D01*
X182743000Y-48085000D02*
X183819900Y-48085000D01*
X185243000Y-57246500D02*
X185243000Y-56708100D01*
X191643000Y-46385000D02*
X191643000Y-47461900D01*
X195344900Y-54610000D02*
X195219900Y-54485000D01*
X195961000Y-54610000D02*
X195344900Y-54610000D01*
X194143000Y-54485000D02*
X195219900Y-54485000D01*
X185243000Y-57246500D02*
X185243000Y-57785000D01*
X181220500Y-100122000D02*
X181220500Y-101048500D01*
X186999700Y-96548400D02*
X185318000Y-98230100D01*
X187709400Y-96548400D02*
X186999700Y-96548400D01*
X187709400Y-95248000D02*
X187709400Y-96548400D01*
X190541100Y-99380100D02*
X191618000Y-99380100D01*
X187709400Y-96548400D02*
X190541100Y-99380100D01*
X191618000Y-100457000D02*
X191618000Y-99918500D01*
X191618000Y-99918500D02*
X191618000Y-99380100D01*
X184105500Y-47799400D02*
X184105500Y-47752000D01*
X183819900Y-48085000D02*
X184105500Y-47799400D01*
X182743000Y-56085000D02*
X183819900Y-56085000D01*
X184271800Y-55633100D02*
X183819900Y-56085000D01*
X184271800Y-48536900D02*
X184271800Y-55633100D01*
X183819900Y-48085000D02*
X184271800Y-48536900D01*
X185318000Y-100457000D02*
X185318000Y-102683900D01*
X185318000Y-102861700D02*
X185318000Y-102683900D01*
X194199500Y-99918500D02*
X194318000Y-100037000D01*
X191618000Y-99918500D02*
X194199500Y-99918500D01*
X195428000Y-100037000D02*
X194318000Y-100037000D01*
X196186000Y-54385000D02*
X196873500Y-54385000D01*
X195961000Y-54610000D02*
X196186000Y-54385000D01*
X197264000Y-54385000D02*
X198251000Y-55372000D01*
X196873500Y-54385000D02*
X197264000Y-54385000D01*
X191643000Y-46385000D02*
X191643000Y-44704000D01*
X195003800Y-41275000D02*
X201803000Y-41275000D01*
X191643000Y-44635800D02*
X195003800Y-41275000D01*
X191643000Y-44704000D02*
X191643000Y-44635800D01*
X185318000Y-102861700D02*
X183820900Y-102861700D01*
X191195600Y-47909300D02*
X191643000Y-47461900D01*
X191195600Y-52606300D02*
X191195600Y-47909300D01*
X187944700Y-55857200D02*
X191195600Y-52606300D01*
X186093900Y-55857200D02*
X187944700Y-55857200D01*
X185243000Y-56708100D02*
X186093900Y-55857200D01*
X186323000Y-103866700D02*
X186323000Y-105464500D01*
X185318000Y-102861700D02*
X186323000Y-103866700D01*
X188223000Y-105853000D02*
X188223000Y-105464500D01*
X187591400Y-106484600D02*
X188223000Y-105853000D01*
X186934600Y-106484600D02*
X187591400Y-106484600D01*
X186323000Y-105873000D02*
X186934600Y-106484600D01*
X186323000Y-105464500D02*
X186323000Y-105873000D01*
X180257100Y-76658000D02*
X180257100Y-85257500D01*
X184493800Y-72421300D02*
X180257100Y-76658000D01*
X184493800Y-71801500D02*
X184493800Y-72421300D01*
X186641100Y-69654200D02*
X184493800Y-71801500D01*
X186641100Y-63377000D02*
X186641100Y-69654200D01*
X185243000Y-61978900D02*
X186641100Y-63377000D01*
X185243000Y-57785000D02*
X185243000Y-61978900D01*
%TO.N,GND*%
X207137000Y-50238000D02*
X207137000Y-55118000D01*
X168529000Y-61891000D02*
X168529000Y-61291000D01*
X206883000Y-41275000D02*
X206883000Y-42451900D01*
X191618000Y-102757000D02*
X192944900Y-102757000D01*
X192944900Y-102370100D02*
X194318000Y-100997000D01*
X192944900Y-102757000D02*
X192944900Y-102370100D01*
X194318000Y-100997000D02*
X195428000Y-100997000D01*
X205692400Y-43274700D02*
X205692400Y-48793400D01*
X206515200Y-42451900D02*
X205692400Y-43274700D01*
X206883000Y-42451900D02*
X206515200Y-42451900D01*
X205692400Y-48793400D02*
X207137000Y-50238000D01*
X175394800Y-140046400D02*
X178323700Y-140046400D01*
X178485300Y-140208000D02*
X178323700Y-140046400D01*
X181329300Y-140208000D02*
X178485300Y-140208000D01*
X168529000Y-63791000D02*
X169167500Y-63791000D01*
X168529000Y-68291000D02*
X168529000Y-67691000D01*
X195517700Y-100997000D02*
X195428000Y-100997000D01*
X196078800Y-100435900D02*
X195517700Y-100997000D01*
X196078800Y-99163000D02*
X196078800Y-100435900D01*
X192292800Y-95377000D02*
X196078800Y-99163000D01*
X192253000Y-95377000D02*
X192292800Y-95377000D01*
X183550100Y-92304900D02*
X182633000Y-93222000D01*
X189655100Y-92304900D02*
X183550100Y-92304900D01*
X192253000Y-94902800D02*
X189655100Y-92304900D01*
X192253000Y-95377000D02*
X192253000Y-94902800D01*
X195254900Y-53650000D02*
X195219900Y-53685000D01*
X195961000Y-53650000D02*
X195254900Y-53650000D01*
X194143000Y-53685000D02*
X195219900Y-53685000D01*
X206403000Y-55852000D02*
X203581000Y-55852000D01*
X207137000Y-55118000D02*
X206403000Y-55852000D01*
X168529000Y-61891000D02*
X169805900Y-61891000D01*
X169167500Y-64075600D02*
X169167500Y-63791000D01*
X168529000Y-64714100D02*
X169167500Y-64075600D01*
X169167500Y-63329400D02*
X170205900Y-62291000D01*
X169167500Y-63791000D02*
X169167500Y-63329400D01*
X171229000Y-62291000D02*
X170205900Y-62291000D01*
X170205900Y-62291000D02*
X169805900Y-61891000D01*
X171229000Y-66091000D02*
X170227100Y-66091000D01*
X187643000Y-57785000D02*
X187643000Y-56708100D01*
X191618000Y-102757000D02*
X191618000Y-103833900D01*
X191618000Y-103833900D02*
X190122000Y-105329900D01*
X187273000Y-105043200D02*
X187273000Y-105464500D01*
X187846500Y-104469700D02*
X187273000Y-105043200D01*
X189261700Y-104469700D02*
X187846500Y-104469700D01*
X190122000Y-105329900D02*
X189261700Y-104469700D01*
X205163600Y-48793400D02*
X205692400Y-48793400D01*
X203454000Y-50503000D02*
X205163600Y-48793400D01*
X168529000Y-65766000D02*
X168529000Y-64714100D01*
X168529000Y-65766000D02*
X168529000Y-65791000D01*
X168529000Y-67691000D02*
X169805900Y-67691000D01*
X168529000Y-65791000D02*
X169805900Y-65791000D01*
X170227100Y-66091000D02*
X170227100Y-66539700D01*
X170978400Y-67291000D02*
X171229000Y-67291000D01*
X170227100Y-66539700D02*
X170978400Y-67291000D01*
X169805900Y-66539700D02*
X170227100Y-66539700D01*
X169805900Y-65791000D02*
X169805900Y-66539700D01*
X169805900Y-66539700D02*
X169805900Y-67691000D01*
X183384000Y-44920600D02*
X183384000Y-44831000D01*
X181702800Y-46601800D02*
X183384000Y-44920600D01*
X181666100Y-46638500D02*
X181702800Y-46601800D01*
X181666100Y-48885000D02*
X181666100Y-46638500D01*
X182204600Y-48885000D02*
X181666100Y-48885000D01*
X182204600Y-48885000D02*
X182743000Y-48885000D01*
X182743000Y-48885000D02*
X183819900Y-48885000D01*
X190400400Y-105608400D02*
X190122000Y-105329900D01*
X190400400Y-107760500D02*
X190400400Y-105608400D01*
X189798900Y-108362000D02*
X190400400Y-107760500D01*
X189763000Y-108362000D02*
X189798900Y-108362000D01*
X182140600Y-139396700D02*
X183338700Y-139396700D01*
X181329300Y-140208000D02*
X182140600Y-139396700D01*
X183338700Y-139396700D02*
X184150000Y-140208000D01*
X183338700Y-109513900D02*
X183643800Y-109208800D01*
X183338700Y-139396700D02*
X183338700Y-109513900D01*
X188916200Y-109208800D02*
X189763000Y-108362000D01*
X183643800Y-109208800D02*
X188916200Y-109208800D01*
X175883000Y-97749500D02*
X175883000Y-99009500D01*
X175943000Y-97689500D02*
X175883000Y-97749500D01*
X181253000Y-104712000D02*
X180913800Y-104712000D01*
X180331400Y-105896400D02*
X183643800Y-109208800D01*
X180331400Y-105294400D02*
X180331400Y-105896400D01*
X180913800Y-104712000D02*
X180331400Y-105294400D01*
X175883000Y-99009500D02*
X175883000Y-99681200D01*
X175883000Y-99681200D02*
X180913800Y-104712000D01*
X163576000Y-107696000D02*
X164752900Y-107696000D01*
X183819900Y-48885000D02*
X183819900Y-55285000D01*
X181034000Y-55285000D02*
X180975000Y-55344000D01*
X182743000Y-55285000D02*
X181034000Y-55285000D01*
X182743000Y-55285000D02*
X183819900Y-55285000D01*
X198015600Y-53650000D02*
X195961000Y-53650000D01*
X200217600Y-55852000D02*
X198015600Y-53650000D01*
X203581000Y-55852000D02*
X200217600Y-55852000D01*
X164752900Y-107037800D02*
X164752900Y-107696000D01*
X172109500Y-99681200D02*
X164752900Y-107037800D01*
X175883000Y-99681200D02*
X172109500Y-99681200D01*
X187643000Y-59273000D02*
X187480000Y-59436000D01*
X187643000Y-57785000D02*
X187643000Y-59273000D01*
X187782900Y-56708100D02*
X187643000Y-56708100D01*
X191647500Y-52843500D02*
X187782900Y-56708100D01*
X191647500Y-48257400D02*
X191647500Y-52843500D01*
X192443000Y-47461900D02*
X191647500Y-48257400D01*
X192443000Y-46385000D02*
X192443000Y-46923400D01*
X192443000Y-46923400D02*
X192443000Y-47461900D01*
X192603000Y-46763400D02*
X192603000Y-44704000D01*
X192443000Y-46923400D02*
X192603000Y-46763400D01*
X200412900Y-47461900D02*
X192443000Y-47461900D01*
X203454000Y-50503000D02*
X200412900Y-47461900D01*
X175943000Y-91445200D02*
X175943000Y-97689500D01*
X180984100Y-86404100D02*
X175943000Y-91445200D01*
X180984100Y-76570100D02*
X180984100Y-86404100D01*
X184945700Y-72608500D02*
X180984100Y-76570100D01*
X184945700Y-71988700D02*
X184945700Y-72608500D01*
X187480000Y-69454400D02*
X184945700Y-71988700D01*
X187480000Y-59436000D02*
X187480000Y-69454400D01*
%TD*%
M02*
