M48
; DRILL file {KiCad 7.0.8} date Wed Nov  8 08:48:09 2023
; FORMAT={-:-/ absolute / inch / decimal}
; #@! TF.CreationDate,2023-11-08T08:48:09-05:00
; #@! TF.GenerationSoftware,Kicad,Pcbnew,7.0.8
; #@! TF.FileFunction,Plated,1,2,PTH
FMAT,2
INCH
; #@! TA.AperFunction,Plated,PTH,ViaDrill
T1C0.0157
; #@! TA.AperFunction,Plated,PTH,ComponentDrill
T2C0.0236
; #@! TA.AperFunction,Plated,PTH,ComponentDrill
T3C0.0315
; #@! TA.AperFunction,Plated,PTH,ComponentDrill
T4C0.0335
; #@! TA.AperFunction,Plated,PTH,ComponentDrill
T5C0.0394
%
G90
G05
T1
X6.7611Y-3.6578
X6.7856Y-3.9553
X6.9015Y-2.6012
X6.9294Y-2.5733
X6.9458Y-2.5318
X7.0967Y-3.3566
X7.1283Y-4.1573
X7.1347Y-3.9783
X7.1537Y-1.8347
X7.1725Y-3.033
X7.1772Y-4.0815
X7.237Y-4.0497
X7.2482Y-1.88
X7.3195Y-2.5574
X7.3228Y-2.3387
X7.3245Y-1.9549
X7.3277Y-2.8534
X7.3486Y-2.1073
X7.3524Y-2.3806
X7.3875Y-1.9808
X7.419Y-2.1389
X7.4494Y-2.1086
X7.4805Y-2.0143
X7.482Y-2.7901
X7.554Y-2.1834
X7.5719Y-2.2214
X7.6111Y-2.2543
X7.6967Y-2.2063
X7.6988Y-1.9876
X7.7105Y-2.3757
X7.7365Y-2.2052
X7.7509Y-2.1411
X7.8366Y-2.0238
T3
X8.155Y-1.9779
X8.155Y-2.17
T4
X6.7413Y-2.4524
X6.7413Y-2.6493
T5
X6.055Y-3.18
X6.055Y-3.28
X6.055Y-3.38
X6.055Y-3.48
X6.055Y-3.58
X6.055Y-3.68
X6.055Y-3.9
X6.055Y-4.0
X6.055Y-4.1
X6.055Y-4.2
X6.055Y-4.3
X6.055Y-4.4
X6.055Y-4.5
X6.055Y-4.6
X6.055Y-4.7
X6.44Y-3.14
X6.44Y-3.24
X6.44Y-3.34
X6.44Y-3.44
X6.44Y-3.54
X6.44Y-3.64
X6.44Y-3.74
X6.44Y-3.84
X6.44Y-3.94
X6.44Y-4.04
X6.44Y-4.14
X6.44Y-4.24
X6.44Y-4.34
X6.44Y-4.44
X6.44Y-4.54
X6.44Y-4.64
X6.44Y-4.74
X7.945Y-1.625
X7.945Y-1.725
X8.045Y-1.625
X8.045Y-1.725
X8.145Y-1.625
X8.145Y-1.725
T2
G00X6.6212Y-2.413
M15
G01X6.6488Y-2.413
M16
G05
G00X6.6488Y-2.6886
M15
G01X6.6212Y-2.6886
M16
G05
T0
M30
