%TF.GenerationSoftware,KiCad,Pcbnew,7.0.8*%
%TF.CreationDate,2023-11-08T08:48:13-05:00*%
%TF.ProjectId,Sleepduino,536c6565-7064-4756-996e-6f2e6b696361,rev?*%
%TF.SameCoordinates,Original*%
%TF.FileFunction,Paste,Top*%
%TF.FilePolarity,Positive*%
%FSLAX46Y46*%
G04 Gerber Fmt 4.6, Leading zero omitted, Abs format (unit mm)*
G04 Created by KiCad (PCBNEW 7.0.8) date 2023-11-08 08:48:13*
%MOMM*%
%LPD*%
G01*
G04 APERTURE LIST*
G04 Aperture macros list*
%AMRoundRect*
0 Rectangle with rounded corners*
0 $1 Rounding radius*
0 $2 $3 $4 $5 $6 $7 $8 $9 X,Y pos of 4 corners*
0 Add a 4 corners polygon primitive as box body*
4,1,4,$2,$3,$4,$5,$6,$7,$8,$9,$2,$3,0*
0 Add four circle primitives for the rounded corners*
1,1,$1+$1,$2,$3*
1,1,$1+$1,$4,$5*
1,1,$1+$1,$6,$7*
1,1,$1+$1,$8,$9*
0 Add four rect primitives between the rounded corners*
20,1,$1+$1,$2,$3,$4,$5,0*
20,1,$1+$1,$4,$5,$6,$7,0*
20,1,$1+$1,$6,$7,$8,$9,0*
20,1,$1+$1,$8,$9,$2,$3,0*%
G04 Aperture macros list end*
%ADD10RoundRect,0.135000X0.135000X0.185000X-0.135000X0.185000X-0.135000X-0.185000X0.135000X-0.185000X0*%
%ADD11RoundRect,0.140000X-0.140000X-0.170000X0.140000X-0.170000X0.140000X0.170000X-0.140000X0.170000X0*%
%ADD12RoundRect,0.140000X0.170000X-0.140000X0.170000X0.140000X-0.170000X0.140000X-0.170000X-0.140000X0*%
%ADD13RoundRect,0.135000X-0.135000X-0.185000X0.135000X-0.185000X0.135000X0.185000X-0.135000X0.185000X0*%
%ADD14RoundRect,0.135000X-0.185000X0.135000X-0.185000X-0.135000X0.185000X-0.135000X0.185000X0.135000X0*%
%ADD15RoundRect,0.218750X0.256250X-0.218750X0.256250X0.218750X-0.256250X0.218750X-0.256250X-0.218750X0*%
%ADD16R,2.000000X1.500000*%
%ADD17R,2.000000X3.800000*%
%ADD18RoundRect,0.140000X0.140000X0.170000X-0.140000X0.170000X-0.140000X-0.170000X0.140000X-0.170000X0*%
%ADD19R,0.533400X1.168400*%
%ADD20RoundRect,0.150000X0.587500X0.150000X-0.587500X0.150000X-0.587500X-0.150000X0.587500X-0.150000X0*%
%ADD21RoundRect,0.140000X-0.170000X0.140000X-0.170000X-0.140000X0.170000X-0.140000X0.170000X0.140000X0*%
%ADD22R,0.550000X1.500000*%
%ADD23R,1.500000X0.550000*%
%ADD24RoundRect,0.135000X0.185000X-0.135000X0.185000X0.135000X-0.185000X0.135000X-0.185000X-0.135000X0*%
%ADD25R,1.350000X0.400000*%
%ADD26R,1.900000X1.500000*%
%ADD27RoundRect,0.150000X-0.150000X0.512500X-0.150000X-0.512500X0.150000X-0.512500X0.150000X0.512500X0*%
%ADD28RoundRect,0.250000X-0.312500X-1.450000X0.312500X-1.450000X0.312500X1.450000X-0.312500X1.450000X0*%
G04 APERTURE END LIST*
D10*
%TO.C,R11*%
X184404000Y-44831000D03*
X183384000Y-44831000D03*
%TD*%
%TO.C,R10*%
X197231000Y-55372000D03*
X198251000Y-55372000D03*
%TD*%
D11*
%TO.C,C12*%
X191643000Y-44704000D03*
X192603000Y-44704000D03*
%TD*%
D12*
%TO.C,C11*%
X195961000Y-53650000D03*
X195961000Y-54610000D03*
%TD*%
%TO.C,C10*%
X180975000Y-55344000D03*
X180975000Y-54384000D03*
%TD*%
D11*
%TO.C,C9*%
X187480000Y-59436000D03*
X188440000Y-59436000D03*
%TD*%
D13*
%TO.C,R6*%
X174494000Y-63923000D03*
X173474000Y-63923000D03*
%TD*%
D14*
%TO.C,R9*%
X175394800Y-135931400D03*
X175394800Y-136951400D03*
%TD*%
%TO.C,R1*%
X181253000Y-103692000D03*
X181253000Y-104712000D03*
%TD*%
D15*
%TO.C,LED_BUILTIN1*%
X178323700Y-140046400D03*
X178323700Y-138471400D03*
%TD*%
D14*
%TO.C,R7*%
X184150000Y-136144000D03*
X184150000Y-137164000D03*
%TD*%
%TO.C,R8*%
X178323700Y-136951400D03*
X178323700Y-135931400D03*
%TD*%
D12*
%TO.C,C1*%
X192253000Y-96337000D03*
X192253000Y-95377000D03*
%TD*%
D16*
%TO.C,U3*%
X191618000Y-102757000D03*
X191618000Y-100457000D03*
D17*
X185318000Y-100457000D03*
D16*
X191618000Y-98157000D03*
%TD*%
D12*
%TO.C,C3*%
X203581000Y-55852000D03*
X203581000Y-54892000D03*
%TD*%
D18*
%TO.C,C7*%
X176903000Y-97689500D03*
X175943000Y-97689500D03*
%TD*%
D12*
%TO.C,C8*%
X182633000Y-93222000D03*
X182633000Y-94182000D03*
%TD*%
D19*
%TO.C,U2*%
X188302999Y-95248000D03*
X190203001Y-95248000D03*
X189253000Y-93216000D03*
%TD*%
D15*
%TO.C,TX1*%
X184150000Y-140208000D03*
X184150000Y-138633000D03*
%TD*%
D20*
%TO.C,Q1*%
X181220500Y-102022000D03*
X181220500Y-100122000D03*
X179345500Y-101072000D03*
%TD*%
D21*
%TO.C,C4*%
X203454000Y-50503000D03*
X203454000Y-51463000D03*
%TD*%
D15*
%TO.C,ON1*%
X175394800Y-140046400D03*
X175394800Y-138471400D03*
%TD*%
D14*
%TO.C,R5*%
X181329300Y-136093000D03*
X181329300Y-137113000D03*
%TD*%
D10*
%TO.C,R3*%
X176903000Y-99009500D03*
X175883000Y-99009500D03*
%TD*%
D13*
%TO.C,R4*%
X174498000Y-64939000D03*
X173478000Y-64939000D03*
%TD*%
D22*
%TO.C,U1*%
X184443000Y-57785000D03*
X185243000Y-57785000D03*
X186043000Y-57785000D03*
X186843000Y-57785000D03*
X187643000Y-57785000D03*
X188443000Y-57785000D03*
X189243000Y-57785000D03*
X190043000Y-57785000D03*
X190843000Y-57785000D03*
X191643000Y-57785000D03*
X192443000Y-57785000D03*
D23*
X194143000Y-56085000D03*
X194143000Y-55285000D03*
X194143000Y-54485000D03*
X194143000Y-53685000D03*
X194143000Y-52885000D03*
X194143000Y-52085000D03*
X194143000Y-51285000D03*
X194143000Y-50485000D03*
X194143000Y-49685000D03*
X194143000Y-48885000D03*
X194143000Y-48085000D03*
D22*
X192443000Y-46385000D03*
X191643000Y-46385000D03*
X190843000Y-46385000D03*
X190043000Y-46385000D03*
X189243000Y-46385000D03*
X188443000Y-46385000D03*
X187643000Y-46385000D03*
X186843000Y-46385000D03*
X186043000Y-46385000D03*
X185243000Y-46385000D03*
X184443000Y-46385000D03*
D23*
X182743000Y-48085000D03*
X182743000Y-48885000D03*
X182743000Y-49685000D03*
X182743000Y-50485000D03*
X182743000Y-51285000D03*
X182743000Y-52085000D03*
X182743000Y-52885000D03*
X182743000Y-53685000D03*
X182743000Y-54485000D03*
X182743000Y-55285000D03*
X182743000Y-56085000D03*
%TD*%
D24*
%TO.C,R2*%
X203200000Y-53686000D03*
X203200000Y-52666000D03*
%TD*%
D25*
%TO.C,J2*%
X171229000Y-63491000D03*
X171229000Y-64141000D03*
X171229000Y-64791000D03*
X171229000Y-65441000D03*
X171229000Y-66091000D03*
D26*
X168529000Y-63791000D03*
X168529000Y-65791000D03*
%TD*%
D21*
%TO.C,C6*%
X189763000Y-108362000D03*
X189763000Y-107402000D03*
%TD*%
%TO.C,C5*%
X195428000Y-100037000D03*
X195428000Y-100997000D03*
%TD*%
D27*
%TO.C,U4*%
X188223000Y-105464500D03*
X187273000Y-105464500D03*
X186323000Y-105464500D03*
X186323000Y-107739500D03*
X188223000Y-107739500D03*
%TD*%
D15*
%TO.C,RX1*%
X181329300Y-140208000D03*
X181329300Y-138633000D03*
%TD*%
D21*
%TO.C,C2*%
X194318000Y-100037000D03*
X194318000Y-100997000D03*
%TD*%
D28*
%TO.C,F1*%
X178315500Y-96842000D03*
X182590500Y-96842000D03*
%TD*%
M02*
